# xmcd CD database file
# Copyright (C) 1993-1998 Ti Kan
#
# Track frame offsets:
#	150
#	12772
#	24767
#	37860
#	52485
#	72232
#	83275
#	94447
#	108650
#	122750
#	142335
#	153737
#	165832
#	180452
#	195292
#	208880
#	222882
#	243037
#	256025
#	269580
#	281727
#	291777
#
# Disc length: 4073 seconds
#
# Revision: 1
# Processed by: cddbd v1.4b41PL1 Copyright (c) Steve Scherf et al.
# Submitted via: NotifyCDPlayer(CDDB) 1.51.3
#
DISCID=390fe716
DTITLE=John Fogerty - John Fogerty \ Blue Ridge Rangers
DYEAR=1900
DGENRE=
TTITLE0=Rocking All over the World
TTITLE1=You Raseal You
TTITLE2=The Wall
TTITLE3=Traveling High
TTITLE4=Lonely Teardrops
TTITLE5=Almost Saturday Night
TTITLE6=Where the River Flows
TTITLE7=Sea Cruise
TTITLE8=Dream Song
TTITLE9=Flying Away
TTITLE10=Blue Ridge Mountain Blue
TTITLE11=Somewhere Listening (for my name)
TTITLE12=You're the Reason
TTITLE13=Jambalaya
TTITLE14=She Think I Still Care
TTITLE15=California Blues
TTITLE16=Workin' on a Building
TTITLE17=Please Help Me I'm Falling
TTITLE18=Have Thine Own Way, Lord
TTITLE19=I Ain't Never
TTITLE20=Hearts of Stone
TTITLE21=Today I Started Loving You Again
EXTD=Creedance Collection vol.5\nTracks 1-10 John Fogerty, 1975\nTracks 11-2
EXTD=2 Blue Ridge Rangers, 1973
EXTT0=
EXTT1=Thread
EXTT2=
EXTT3=
EXTT4=Gordi/Carlo
EXTT5=
EXTT6=
EXTT7=Smith/Vincent
EXTT8=
EXTT9=
EXTT10=
EXTT11=Brown/Lee
EXTT12=Edwards/Henley/Imes/Fell
EXTT13=Williams
EXTT14=Lipscomb/Duffy
EXTT15=Rodgers
EXTT16=
EXTT17=Robertson/Blair
EXTT18=Stebbins/Pollard
EXTT19=Tills/Pierce
EXTT20=Ray/Sackson
EXTT21=Haddard
PLAYORDER=
